HIERARCHY
ROOT mixamorig:Hips
{
	OFFSET 0.000000 201.639420 0.000000
	CHANNELS 6 Xposition Yposition Zposition Xrotation Yrotation Zrotation
	JOINT mixamorig:Spine
	{
		OFFSET 0.006200 19.524994 -2.481800
		CHANNELS 3 Xrotation Yrotation Zrotation
		JOINT mixamorig:Spine1
		{
			OFFSET -0.000900 22.835007 -2.825400
			CHANNELS 3 Xrotation Yrotation Zrotation
			JOINT mixamorig:Spine2
			{
				OFFSET -0.020600 26.552490 -3.193300
				CHANNELS 3 Xrotation Yrotation Zrotation
				JOINT mixamorig:Neck
				{
					OFFSET -0.060000 30.701813 1.352200
					CHANNELS 3 Xrotation Yrotation Zrotation
					JOINT mixamorig:Head
					{
						OFFSET -0.087200 22.547607 3.670900
						CHANNELS 3 Xrotation Yrotation Zrotation
						JOINT mixamorig:HeadTop_End
						{
							OFFSET -0.830600 40.355194 7.893500
							CHANNELS 3 Xrotation Yrotation Zrotation
							End Site
							{
								OFFSET 0.000000 30.592346 0.000000
							}
						}
						JOINT mixamorig:RightEye
						{
							OFFSET -6.302100 18.118591 16.197100
							CHANNELS 3 Xrotation Yrotation Zrotation
							End Site
							{
								OFFSET 0.000000 30.592346 0.000000
							}
						}
						JOINT mixamorig:LeftEye
						{
							OFFSET 6.741500 18.382690 16.401899
							CHANNELS 3 Xrotation Yrotation Zrotation
							End Site
							{
								OFFSET 0.000000 30.592346 0.000000
							}
						}
					}
				}
				JOINT mixamorig:LeftShoulder
				{
					OFFSET 11.924900 18.230499 1.425400
					CHANNELS 3 Xrotation Yrotation Zrotation
					JOINT mixamorig:LeftArm
					{
						OFFSET 25.435989 -0.697632 -5.229300
						CHANNELS 3 Xrotation Yrotation Zrotation
						JOINT mixamorig:LeftForeArm
						{
							OFFSET 54.684776 0.000000 0.000000
							CHANNELS 3 Xrotation Yrotation Zrotation
							JOINT mixamorig:LeftHand
							{
								OFFSET 55.098175 0.000000 0.000000
								CHANNELS 3 Xrotation Yrotation Zrotation
								JOINT mixamorig:LeftHandMiddle1
								{
									OFFSET 23.369751 0.000000 0.000000
									CHANNELS 3 Xrotation Yrotation Zrotation
									JOINT mixamorig:LeftHandMiddle2
									{
										OFFSET 6.378677 0.000000 0.000000
										CHANNELS 3 Xrotation Yrotation Zrotation
										JOINT mixamorig:LeftHandMiddle3
										{
											OFFSET 6.148331 0.000000 0.000000
											CHANNELS 3 Xrotation Yrotation Zrotation
											JOINT mixamorig:LeftHandMiddle4
											{
												OFFSET 6.582504 0.000000 0.000000
												CHANNELS 3 Xrotation Yrotation Zrotation
												End Site
												{
													OFFSET -1.168900 6.395691 1.028606
												}
											}
										}
									}
								}
								JOINT mixamorig:LeftHandThumb1
								{
									OFFSET 7.235672 -3.848206 5.434273
									CHANNELS 3 Xrotation Yrotation Zrotation
									JOINT mixamorig:LeftHandThumb2
									{
										OFFSET 6.568451 -3.792297 3.792300
										CHANNELS 3 Xrotation Yrotation Zrotation
										JOINT mixamorig:LeftHandThumb3
										{
											OFFSET 6.063080 -3.500519 3.500518
											CHANNELS 3 Xrotation Yrotation Zrotation
											JOINT mixamorig:LeftHandThumb4
											{
												OFFSET 4.793182 -2.767334 2.767349
												CHANNELS 3 Xrotation Yrotation Zrotation
												End Site
												{
													OFFSET 0.101639 6.054260 1.275483
												}
											}
										}
									}
								}
								JOINT mixamorig:LeftHandIndex1
								{
									OFFSET 23.101074 -0.309540 4.992809
									CHANNELS 3 Xrotation Yrotation Zrotation
									JOINT mixamorig:LeftHandIndex2
									{
										OFFSET 6.226883 0.000000 0.000000
										CHANNELS 3 Xrotation Yrotation Zrotation
										JOINT mixamorig:LeftHandIndex3
										{
											OFFSET 6.094330 0.000000 0.000000
											CHANNELS 3 Xrotation Yrotation Zrotation
											JOINT mixamorig:LeftHandIndex4
											{
												OFFSET 5.482605 0.000000 0.000000
												CHANNELS 3 Xrotation Yrotation Zrotation
												End Site
												{
													OFFSET -1.427902 5.233032 0.797164
												}
											}
										}
									}
								}
								JOINT mixamorig:LeftHandRing1
								{
									OFFSET 22.299240 0.021149 -3.964172
									CHANNELS 3 Xrotation Yrotation Zrotation
									JOINT mixamorig:LeftHandRing2
									{
										OFFSET 6.321869 0.000000 0.000000
										CHANNELS 3 Xrotation Yrotation Zrotation
										JOINT mixamorig:LeftHandRing3
										{
											OFFSET 5.899796 0.000000 0.000000
											CHANNELS 3 Xrotation Yrotation Zrotation
											JOINT mixamorig:LeftHandRing4
											{
												OFFSET 6.517899 0.000000 0.000000
												CHANNELS 3 Xrotation Yrotation Zrotation
												End Site
												{
													OFFSET -1.637299 6.232208 0.980890
												}
											}
										}
									}
								}
								JOINT mixamorig:LeftHandPinky1
								{
									OFFSET 20.463791 -0.302338 -8.562233
									CHANNELS 3 Xrotation Yrotation Zrotation
									JOINT mixamorig:LeftHandPinky2
									{
										OFFSET 6.908646 0.000000 0.000000
										CHANNELS 3 Xrotation Yrotation Zrotation
										JOINT mixamorig:LeftHandPinky3
										{
											OFFSET 4.622849 0.000000 0.000000
											CHANNELS 3 Xrotation Yrotation Zrotation
											JOINT mixamorig:LeftHandPinky4
											{
												OFFSET 5.216080 0.000000 0.000000
												CHANNELS 3 Xrotation Yrotation Zrotation
												End Site
												{
													OFFSET -0.606308 5.116241 0.814926
												}
											}
										}
									}
								}
							}
						}
					}
				}
				JOINT mixamorig:RightShoulder
				{
					OFFSET -12.001300 18.284088 1.348900
					CHANNELS 3 Xrotation Yrotation Zrotation
					JOINT mixamorig:RightArm
					{
						OFFSET -25.308500 -0.751312 -5.164599
						CHANNELS 3 Xrotation Yrotation Zrotation
						JOINT mixamorig:RightForeArm
						{
							OFFSET -54.684429 0.000000 0.000000
							CHANNELS 3 Xrotation Yrotation Zrotation
							JOINT mixamorig:RightHand
							{
								OFFSET -55.150291 0.000000 0.000000
								CHANNELS 3 Xrotation Yrotation Zrotation
								JOINT mixamorig:RightHandMiddle1
								{
									OFFSET -23.317566 0.000000 0.000000
									CHANNELS 3 Xrotation Yrotation Zrotation
									JOINT mixamorig:RightHandMiddle2
									{
										OFFSET -6.378403 0.000000 0.000000
										CHANNELS 3 Xrotation Yrotation Zrotation
										JOINT mixamorig:RightHandMiddle3
										{
											OFFSET -6.148193 0.000000 0.000000
											CHANNELS 3 Xrotation Yrotation Zrotation
											JOINT mixamorig:RightHandMiddle4
											{
												OFFSET -6.583389 0.000000 0.000000
												CHANNELS 3 Xrotation Yrotation Zrotation
												End Site
												{
													OFFSET 1.171692 6.395905 1.029786
												}
											}
										}
									}
								}
								JOINT mixamorig:RightHandThumb1
								{
									OFFSET -7.190521 -3.860474 5.435846
									CHANNELS 3 Xrotation Yrotation Zrotation
									JOINT mixamorig:RightHandThumb2
									{
										OFFSET -6.567429 -3.791718 3.791708
										CHANNELS 3 Xrotation Yrotation Zrotation
										JOINT mixamorig:RightHandThumb3
										{
											OFFSET -6.062469 -3.500153 3.500166
											CHANNELS 3 Xrotation Yrotation Zrotation
											JOINT mixamorig:RightHandThumb4
											{
												OFFSET -4.792618 -2.767029 2.767022
												CHANNELS 3 Xrotation Yrotation Zrotation
												End Site
												{
													OFFSET -0.100327 6.053253 1.276754
												}
											}
										}
									}
								}
								JOINT mixamorig:RightHandIndex1
								{
									OFFSET -23.048981 -0.310791 4.992554
									CHANNELS 3 Xrotation Yrotation Zrotation
									JOINT mixamorig:RightHandIndex2
									{
										OFFSET -6.227539 0.000000 0.000000
										CHANNELS 3 Xrotation Yrotation Zrotation
										JOINT mixamorig:RightHandIndex3
										{
											OFFSET -6.095047 0.000000 0.000000
											CHANNELS 3 Xrotation Yrotation Zrotation
											JOINT mixamorig:RightHandIndex4
											{
												OFFSET -5.484772 0.000000 0.000000
												CHANNELS 3 Xrotation Yrotation Zrotation
												End Site
												{
													OFFSET 1.420593 5.237305 0.797056
												}
											}
										}
									}
								}
								JOINT mixamorig:RightHandRing1
								{
									OFFSET -22.246323 0.020569 -3.963762
									CHANNELS 3 Xrotation Yrotation Zrotation
									JOINT mixamorig:RightHandRing2
									{
										OFFSET -6.322128 0.000000 0.000000
										CHANNELS 3 Xrotation Yrotation Zrotation
										JOINT mixamorig:RightHandRing3
										{
											OFFSET -5.900024 0.000000 0.000000
											CHANNELS 3 Xrotation Yrotation Zrotation
											JOINT mixamorig:RightHandRing4
											{
												OFFSET -6.518356 0.000000 0.000000
												CHANNELS 3 Xrotation Yrotation Zrotation
												End Site
												{
													OFFSET 1.636398 6.232697 0.982186
												}
											}
										}
									}
								}
								JOINT mixamorig:RightHandPinky1
								{
									OFFSET -20.411011 -0.303314 -8.561701
									CHANNELS 3 Xrotation Yrotation Zrotation
									JOINT mixamorig:RightHandPinky2
									{
										OFFSET -6.907349 0.000000 0.000000
										CHANNELS 3 Xrotation Yrotation Zrotation
										JOINT mixamorig:RightHandPinky3
										{
											OFFSET -4.623840 0.000000 0.000000
											CHANNELS 3 Xrotation Yrotation Zrotation
											JOINT mixamorig:RightHandPinky4
											{
												OFFSET -5.218353 0.000000 0.000000
												CHANNELS 3 Xrotation Yrotation Zrotation
												End Site
												{
													OFFSET 0.602097 5.118835 0.816273
												}
											}
										}
									}
								}
							}
						}
					}
				}
			}
		}
	}
	JOINT mixamorig:LeftUpLeg
	{
		OFFSET 18.168400 -13.561905 -0.039000
		CHANNELS 3 Xrotation Yrotation Zrotation
		JOINT mixamorig:LeftLeg
		{
			OFFSET 0.577358 -80.825211 -3.695000
			CHANNELS 3 Xrotation Yrotation Zrotation
			JOINT mixamorig:LeftFoot
			{
				OFFSET -0.577356 -83.370262 -6.520700
				CHANNELS 3 Xrotation Yrotation Zrotation
				JOINT mixamorig:LeftToeBase
				{
					OFFSET 0.750401 -20.798306 25.135401
					CHANNELS 3 Xrotation Yrotation Zrotation
					JOINT mixamorig:LeftToe_End
					{
						OFFSET -0.000500 0.001200 19.917799
						CHANNELS 3 Xrotation Yrotation Zrotation
						End Site
						{
							OFFSET 0.000000 19.917805 0.000000
						}
					}
				}
			}
		}
	}
	JOINT mixamorig:RightUpLeg
	{
		OFFSET -18.162500 -13.585098 -0.041000
		CHANNELS 3 Xrotation Yrotation Zrotation
		JOINT mixamorig:RightLeg
		{
			OFFSET -0.595024 -80.945297 -3.631900
			CHANNELS 3 Xrotation Yrotation Zrotation
			JOINT mixamorig:RightFoot
			{
				OFFSET 0.595024 -83.218193 -6.561200
				CHANNELS 3 Xrotation Yrotation Zrotation
				JOINT mixamorig:RightToeBase
				{
					OFFSET -0.753601 -20.807106 25.115000
					CHANNELS 3 Xrotation Yrotation Zrotation
					JOINT mixamorig:RightToe_End
					{
						OFFSET 0.000299 0.001700 19.918200
						CHANNELS 3 Xrotation Yrotation Zrotation
						End Site
						{
							OFFSET 0.000000 19.918203 0.000000
						}
					}
				}
			}
		}
	}
}
MOTION
Frames: 6
Frame Time: 0.033333
0.409804 139.428284 -14.156361 5.905266 2.299788 -3.378493 10.376542 -1.175037 0.224122 20.755622 -2.826011 0.340067 20.755632 -2.826013 0.340067 -11.582888 8.836602 -0.285656 -42.332577 1.988078 7.658321 -0.000000 0.000000 0.000001 -0.000000 0.000000 0.000001 -0.000000 0.000000 0.000001 7.380708 -8.880813 -14.995742 -28.002051 -4.291060 -51.363371 174.981892 -76.481665 175.055344 74.894103 -18.192573 50.500684 -3.170127 -4.534300 -3.040593 -0.642717 -1.621728 -38.058921 0.000001 -0.000005 0.000002 0.000001 0.000001 -0.000000 -16.895972 -53.676681 2.006914 2.713853 -2.643188 15.399835 0.000007 -0.000014 0.000008 -0.000002 0.000002 -0.000002 -3.767391 -10.875864 16.738835 0.664876 1.753709 -21.054422 -0.000005 -0.000013 0.000011 -0.000002 -0.000003 0.000003 0.011316 3.160659 -15.550097 -2.164269 -3.185375 -52.609351 0.000001 0.000020 -0.000006 -0.000001 0.000002 0.000005 0.819504 -5.986007 -26.030344 -3.371148 -7.566694 -47.457657 0.000003 0.000005 -0.000010 -0.000001 -0.000002 0.000002 0.205799 1.181922 0.149233 -24.714536 23.553950 61.823403 5.385474 73.545879 -5.898437 59.201559 0.347743 -19.012626 -0.612844 -1.343828 30.881761 -0.159835 0.837374 16.728754 0.000004 0.000004 -0.000006 -0.000001 0.000000 -0.000001 -29.069982 2.663905 1.943374 6.075680 -21.863934 -5.451143 0.000004 0.000001 -0.000000 0.000003 0.000001 0.000000 0.614073 -1.000188 33.555528 0.125624 -1.102906 16.891447 0.000008 0.000006 -0.000001 0.000001 0.000000 -0.000004 -6.486230 -14.353110 33.507047 -0.189173 0.082941 18.851674 0.000000 -0.000000 0.000006 -0.000001 0.000000 0.000000 -8.160331 -18.654273 43.160249 -0.402101 2.038889 20.632519 0.000008 0.000018 0.000007 0.000001 -0.000000 0.000000 -86.444090 -13.658975 16.705869 90.617233 1.404668 -2.172290 19.203809 2.858618 -13.156654 -28.841106 -0.302534 1.161427 -0.000000 0.000000 -0.000000 -83.708251 -2.614523 -11.054385 64.615809 1.571018 2.196501 13.324831 -0.997573 1.032791 0.102577 0.000150 0.004333 -0.000000 -0.000000 0.000000 
0.454734 139.452423 -14.126356 5.961267 2.369519 -3.364609 10.385006 -1.183438 0.226440 20.772799 -2.839526 0.348730 20.772789 -2.839528 0.348729 -11.450778 8.817880 -0.306182 -42.302196 1.853114 7.578759 -0.000000 -0.000000 -0.000000 -0.000000 -0.000000 -0.000000 -0.000000 -0.000000 -0.000000 7.383640 -8.882705 -14.922551 -28.054628 -3.993121 -51.481185 175.007792 -76.418875 175.081463 74.403873 -18.515004 49.934987 -3.206645 -4.509773 -3.262082 -0.645190 -1.623809 -38.100308 0.000001 -0.000006 0.000001 -0.000000 -0.000005 0.000001 -17.203628 -53.547583 1.626463 2.694515 -2.614782 15.314867 0.000008 -0.000015 0.000009 0.000001 -0.000000 -0.000001 -3.784782 -10.907834 16.661070 0.665493 1.748314 -21.003803 -0.000007 -0.000016 0.000016 -0.000000 -0.000004 -0.000000 -0.028855 3.125614 -16.063329 -2.159806 -3.184024 -52.575395 0.000003 0.000012 -0.000006 -0.000000 0.000003 -0.000001 0.650391 -6.117047 -26.480642 -3.423635 -7.609812 -47.812205 0.000005 0.000004 -0.000009 0.000002 0.000001 0.000003 0.221570 1.257252 0.281029 -24.542313 23.592705 61.464736 5.700160 73.770619 -6.207734 58.987556 0.159081 -18.962028 -0.616131 -1.315777 30.839489 -0.159938 0.837538 16.732080 0.000005 0.000003 -0.000005 0.000002 -0.000000 -0.000002 -29.069702 2.665099 1.941730 6.083084 -21.875168 -5.451942 0.000010 0.000000 -0.000002 0.000003 0.000000 0.000002 0.612996 -1.001003 33.551347 0.124991 -1.106273 16.948105 0.000006 0.000006 0.000001 0.000002 0.000000 0.000000 -6.494792 -14.354063 33.404608 -0.190320 0.086334 18.906993 0.000001 -0.000000 0.000006 -0.000001 0.000000 -0.000002 -8.175247 -18.634300 43.134946 -0.403232 2.041978 20.662714 0.000008 0.000018 0.000007 -0.000001 0.000000 -0.000000 -86.510739 -13.567787 16.679974 90.608620 1.407032 -2.172866 19.158080 2.834889 -13.066590 -28.874635 -0.303048 1.162612 -0.000000 -0.000002 -0.000000 -83.748228 -2.584639 -11.131056 64.621192 1.563660 2.192480 13.326713 -0.986148 1.031550 0.202679 0.000320 0.008562 -0.000000 0.000000 0.000000 
0.509575 139.466888 -14.100698 5.994700 2.437067 -3.349109 10.389548 -1.189748 0.234164 20.782174 -2.848558 0.366937 20.782148 -2.848556 0.366938 -11.303585 8.804980 -0.340730 -42.185113 1.741019 7.498469 0.000000 -0.000000 0.000000 0.000000 -0.000000 0.000000 0.000000 -0.000000 0.000000 7.387969 -8.917860 -14.876311 -28.002720 -3.991581 -51.434996 174.973136 -76.413056 175.049470 73.945581 -18.967341 49.057451 -3.215805 -4.441417 -3.417808 -0.647241 -1.625662 -38.139267 -0.000001 -0.000002 0.000004 -0.000001 -0.000001 0.000000 -17.871306 -53.301130 0.818579 2.668783 -2.580292 15.205200 0.000011 -0.000014 0.000006 0.000001 0.000001 -0.000001 -3.797822 -10.922623 16.609340 0.665547 1.741613 -20.936400 -0.000004 -0.000014 0.000019 -0.000001 0.000001 -0.000004 -0.009893 3.154238 -16.572042 -2.153818 -3.181623 -52.537125 0.000002 0.000012 -0.000005 0.000000 -0.000001 0.000002 0.499241 -6.226713 -26.895813 -3.472728 -7.649677 -48.142018 0.000004 0.000009 -0.000006 0.000001 0.000001 0.000001 0.234763 1.317592 0.416834 -24.383868 23.659992 61.118561 5.995598 73.957766 -6.501806 58.812771 -0.037471 -18.875095 -0.621449 -1.291159 30.830962 -0.159889 0.837413 16.729954 0.000003 0.000003 -0.000004 0.000001 -0.000000 -0.000001 -29.061768 2.651835 1.934675 6.076270 -21.864774 -5.453240 0.000007 0.000001 0.000001 0.000000 -0.000002 0.000005 0.613762 -1.018428 33.555186 0.125314 -1.106875 16.960239 0.000007 0.000006 0.000002 0.000001 0.000001 -0.000002 -6.499789 -14.332606 33.370095 -0.190770 0.087612 18.928105 0.000000 -0.000000 0.000009 0.000000 0.000000 0.000002 -8.179402 -18.635678 43.103828 -0.404489 2.045339 20.695400 0.000007 0.000018 0.000007 -0.000001 -0.000000 0.000000 -86.561972 -13.501387 16.625293 90.607404 1.405572 -2.173334 19.147102 2.829772 -13.009817 -28.905610 -0.303524 1.163716 -0.000000 0.000000 0.000000 -83.768677 -2.539766 -11.202087 64.628220 1.556759 2.189385 13.326810 -0.980770 1.048302 0.202742 0.000312 0.008566 -0.000000 -0.000001 -0.000000 
0.561829 139.474365 -14.084179 6.007285 2.484860 -3.345003 10.394649 -1.194629 0.239865 20.792551 -2.856600 0.379717 20.792575 -2.856602 0.379716 -11.182330 8.799637 -0.359178 -42.042949 1.699913 7.430417 -0.000000 -0.000000 -0.000000 -0.000000 -0.000000 -0.000000 -0.000000 -0.000000 -0.000000 7.395010 -8.951770 -14.758509 -27.873780 -4.171873 -51.343488 174.912443 -76.408602 174.993408 73.505075 -19.503706 48.070079 -3.226455 -4.435763 -3.483431 -0.647065 -1.626180 -38.127748 -0.000002 -0.000011 0.000001 -0.000001 -0.000002 -0.000001 -18.880327 -53.295891 -0.275785 2.646742 -2.549423 15.110212 0.000004 -0.000015 0.000009 0.000002 0.000001 0.000000 -3.765783 -10.923312 16.710519 0.663984 1.731323 -20.820030 -0.000003 -0.000015 0.000014 0.000001 -0.000001 0.000001 -0.083489 3.080344 -16.765073 -2.144797 -3.175458 -52.423768 0.000003 0.000011 -0.000001 -0.000001 -0.000003 -0.000002 0.362327 -6.300660 -27.353571 -3.529177 -7.694923 -48.519516 0.000004 0.000007 -0.000002 0.000002 0.000001 0.000004 0.239563 1.329300 0.542454 -24.276820 23.810208 60.823538 6.187241 74.065943 -6.678983 58.663996 -0.222308 -18.809279 -0.620213 -1.285995 30.798822 -0.159799 0.837294 16.727055 0.000005 0.000003 -0.000004 0.000000 0.000001 -0.000000 -29.072932 2.677433 1.946215 6.086759 -21.882350 -5.453099 0.000007 0.000003 -0.000006 0.000000 -0.000001 -0.000003 0.607722 -1.011504 33.517794 0.128733 -1.098653 16.832689 0.000006 0.000006 0.000001 0.000002 0.000000 -0.000001 -6.498869 -14.332776 33.376645 -0.189987 0.085367 18.891142 0.000002 -0.000000 0.000007 -0.000000 0.000000 -0.000002 -8.181761 -18.644425 43.122949 -0.404392 2.045034 20.692579 0.000007 0.000018 0.000006 0.000000 -0.000000 0.000001 -86.592681 -13.484361 16.557552 90.609856 1.399763 -2.173815 19.177254 2.845304 -13.000728 -28.926312 -0.303837 1.164448 -0.000000 -0.000000 -0.000000 -83.767701 -2.492278 -11.239886 64.632256 1.552744 2.188546 13.327501 -0.991116 1.075611 0.101744 0.000155 0.004299 0.000000 0.000001 -0.000000 
0.603028 139.481918 -14.077148 6.011918 2.512249 -3.354585 10.400273 -1.199350 0.241329 20.803909 -2.865743 0.383609 20.803920 -2.865746 0.383609 -11.113668 8.804478 -0.367483 -41.927782 1.734783 7.379290 0.000001 0.000001 0.000001 0.000001 0.000001 0.000001 0.000001 0.000001 0.000001 7.402165 -8.964384 -14.597161 -27.695538 -4.509119 -51.218229 174.819511 -76.426374 174.906692 73.359797 -20.049182 47.168429 -3.213832 -4.451319 -3.400421 -0.644667 -1.625432 -38.065570 -0.000001 -0.000006 0.000003 -0.000000 -0.000002 0.000001 -20.601787 -53.042310 -2.209742 2.624356 -2.518310 15.014301 0.000007 -0.000014 0.000003 0.000002 0.000001 0.000003 -3.657470 -10.952686 17.032424 0.663715 1.725052 -20.756593 -0.000009 -0.000018 0.000018 -0.000000 -0.000001 -0.000002 -0.178485 2.976833 -16.647437 -2.127155 -3.164131 -52.208955 0.000003 0.000013 -0.000003 -0.000000 0.000002 0.000001 0.335723 -6.259563 -27.642658 -3.570094 -7.727369 -48.791712 0.000003 0.000004 -0.000010 -0.000003 -0.000002 -0.000001 0.238482 1.312156 0.618358 -24.230000 23.977661 60.638269 6.270741 74.098318 -6.742987 58.552937 -0.355230 -18.791934 -0.613841 -1.306883 30.778072 -0.159805 0.837273 16.727304 0.000007 0.000003 -0.000005 0.000002 -0.000001 0.000001 -29.062851 2.660935 1.938408 6.088350 -21.888596 -5.452496 0.000007 0.000001 -0.000000 -0.000001 0.000000 0.000000 0.597933 -0.995215 33.529867 0.127472 -1.103439 16.911159 0.000006 0.000007 0.000001 -0.000001 0.000000 -0.000000 -6.497095 -14.341850 33.421581 -0.189291 0.083307 18.857918 0.000001 -0.000001 0.000008 -0.000001 0.000000 0.000001 -8.181910 -18.618542 43.120582 -0.402092 2.038889 20.632490 0.000009 0.000018 0.000008 -0.000001 -0.000000 0.000000 -86.603705 -13.515860 16.481286 90.610191 1.394658 -2.174074 19.211917 2.885333 -13.037559 -28.932026 -0.303946 1.164647 -0.000000 -0.000001 -0.000000 -83.756137 -2.459825 -11.248785 64.627851 1.550865 2.188563 13.331093 -1.009126 1.092566 0.089361 0.000141 0.003777 0.000000 -0.000001 -0.000000 
0.627895 139.488358 -14.077068 6.011317 2.522954 -3.373785 10.404890 -1.201618 0.241396 20.813132 -2.870299 0.384240 20.813140 -2.870298 0.384239 -11.092750 8.818886 -0.389582 -41.878383 1.808334 7.331122 -0.000000 -0.000000 -0.000000 -0.000000 -0.000000 -0.000000 -0.000000 -0.000000 -0.000000 7.406355 -8.957374 -14.474424 -27.491641 -4.995171 -51.031977 174.688399 -76.489048 174.782929 73.743408 -20.502911 46.433030 -3.200841 -4.476629 -3.300652 -0.642541 -1.624852 -38.015843 0.000002 -0.000004 0.000003 -0.000001 -0.000002 0.000001 -22.190878 -52.702327 -4.022858 2.600661 -2.486012 14.913617 0.000006 -0.000016 0.000006 0.000001 0.000000 0.000002 -3.552781 -10.989163 17.336285 0.664828 1.722739 -20.745204 -0.000005 -0.000019 0.000017 0.000000 -0.000000 0.000003 -0.265164 2.879872 -16.438314 -2.110671 -3.153478 -51.992691 0.000003 0.000012 -0.000007 -0.000003 0.000002 0.000002 0.325570 -6.217918 -27.848097 -3.599336 -7.750164 -48.984368 0.000004 0.000010 -0.000011 -0.000002 0.000003 -0.000001 0.236792 1.305219 0.601722 -24.228757 24.058464 60.601974 6.266993 74.080075 -6.735081 58.496766 -0.406113 -18.820484 -0.613472 -1.316624 30.798832 -0.159038 0.835666 16.698979 0.000005 0.000002 -0.000005 -0.000001 0.000001 0.000002 -29.059460 2.657910 1.937006 6.064659 -21.853084 -5.453986 0.000007 0.000000 0.000001 -0.000001 0.000000 0.000005 0.592006 -1.000151 33.556672 0.127088 -1.105688 16.948928 0.000009 0.000007 0.000001 -0.000001 0.000000 -0.000001 -6.499884 -14.318414 33.405656 -0.189109 0.082780 18.848722 0.000002 -0.000000 0.000004 -0.000001 0.000000 0.000001 -8.177307 -18.615623 43.165426 -0.402347 2.039618 20.639546 0.000007 0.000018 0.000007 -0.000002 0.000000 0.000000 -86.596280 -13.582614 16.404060 90.611817 1.393207 -2.173841 19.227177 2.941097 -13.107085 -28.925462 -0.303842 1.164418 -0.000000 0.000001 0.000000 -83.740469 -2.456075 -11.245655 64.614921 1.552992 2.189352 13.337083 -1.019996 1.088821 0.084093 0.000127 0.003554 -0.000000 -0.000000 -0.000000 
